<svg xmlns="http://www.w3.org/2000/svg" version="1.1" xmlns:xlink="http://www.w3.org/1999/xlink" xmlns:svgjs="http://svgjs.dev/svgjs" width="1000" height="358" viewBox="0 0 1000 358"><g transform="matrix(1,0,0,1,-0.6055954126534857,-0.040551450676417744)"><svg viewBox="0 0 396 142" data-background-color="#f9f9f9" preserveAspectRatio="xMidYMid meet" height="358" width="1000" xmlns="http://www.w3.org/2000/svg" xmlns:xlink="http://www.w3.org/1999/xlink"><g id="tight-bounds" transform="matrix(1,0,0,1,0.23981578341079057,0.01608465362025413)"><svg viewBox="0 0 395.52 141.96749606421844" height="141.96749606421844" width="395.52"><g><svg viewBox="0 0 395.52 141.96749606421844" height="141.96749606421844" width="395.52"><g transform="matrix(1,0,0,1,0,93.2110504557979)"><svg viewBox="0 0 395.52 48.756445608420535" height="48.756445608420535" width="395.52"><g><svg viewBox="0 0 395.52 48.756445608420535" height="48.756445608420535" width="395.52"><g><svg viewBox="0 0 395.52 48.756445608420535" height="48.756445608420535" width="395.52"><g transform="matrix(1,0,0,1,0,0)"><svg width="395.52" viewBox="0.15090179443359375 -38.255210876464844 413.11871337890625 50.92586135864258" height="48.756445608420535" data-palette-color="#001f3f"><path d="M50.142 6.197l-0.696 1.793-14.242 1.496-0.133-1.263 4.178-4.069-2.892-27.528-9.691 33.707-2.377 0.25-16.427-31.355 2.98 28.354 5.322 2.135-0.647 1.788-11.099 1.166-0.133-1.263 4.178-4.069-3.019-28.732-5.293-2.34 0.647-1.787 9.885-1.039 15.587 29.875 9.087-32.467 10.513-1.105 0.132 1.263-4.227 4.074 3.121 29.707zM94.226 2.652l-0.746 1.772-14.088 1.088-0.098-1.266 4.1-3.928-4.613-9.082-16.52 1.276-3.523 10.101 8.957 2.087-0.696 1.768-14.577 1.126-0.098-1.267 4.157-3.841 11.529-32.945 4.185-2.82 16.939 33.245zM77.858-10.598l-8.589-16.929-6.327 18.08zM132.918 0.662l-0.734 1.753-8.757 0.485-11.964-16.765-2.381-1.581 0.569-1.293 2.816-0.156c2.303-0.127 4.089-0.79 5.358-1.989 1.269-1.192 1.849-2.776 1.741-4.754v0c-0.145-2.629-0.995-4.779-2.55-6.449-1.561-1.67-3.753-2.426-6.576-2.27v0c-1.877 0.104-3.564 0.751-5.06 1.943v0l1.695 30.653 5.162 1.517-0.734 1.753-14.309 0.792-0.07-1.268 4.377-3.808-1.661-30.024-5.109-1.47 0.734-1.753 5.162-0.286c2.949-0.163 5.879-0.422 8.791-0.777v0c2.07-0.241 3.621-0.391 4.652-0.447v0c2.11-0.117 4.018 0.215 5.724 0.995 1.699 0.787 3.046 1.895 4.04 3.322 0.987 1.421 1.529 3.023 1.628 4.808v0c0.09 1.624-0.343 3.211-1.3 4.759-0.956 1.548-2.222 2.914-3.799 4.096-1.577 1.176-3.26 2.09-5.046 2.743v0l3.124 0.898 8.469 11.881zM145.85-1.635l5.127 1.632-0.774 1.736-14.322 0.473-0.042-1.27 4.461-3.709-0.99-30.003-5.076-1.634 0.773-1.726 14.322-0.473 0.042 1.26-4.51 3.71zM173.574-0.748l-0.773 1.736-8.525 0.281-15.975-18.683 14.668-13.651-5.746-4.053 0.773-1.736 12.813-0.423 0.042 1.269-17.366 16.181 14.25 16.45zM208.8-17.947c2.273-0.009 4.081-0.616 5.423-1.821 1.349-1.205 2.019-2.865 2.011-4.978v0c-0.012-3.053-0.802-5.56-2.369-7.521-1.568-1.961-3.848-2.935-6.842-2.924v0c-2.307 0.009-4.397 0.684-6.272 2.025v0l0.116 30.019 7.418 2.112-0.873 1.713-16.62 0.064-0.005-1.269 4.566-3.618-0.116-30.12-5.027-1.641 0.824-1.703 5.17-0.02c3.213-0.012 6.38-0.125 9.498-0.336v0c2.273-0.135 3.963-0.205 5.07-0.21v0c2.24-0.009 4.222 0.464 5.945 1.417 1.73 0.947 3.075 2.255 4.035 3.924 0.966 1.67 1.454 3.528 1.462 5.575v0c0.009 2.247-0.796 4.37-2.415 6.369-1.612 2.006-3.676 3.584-6.192 4.734-2.516 1.143-5.007 1.656-7.474 1.539v0l-2.347-1.701 0.874-1.703 4.19-0.017zM261.888-0.413l-0.909 1.695-14.128-0.241 0.022-1.27 4.45-3.525-3.739-9.475-16.567-0.283-4.457 9.726 8.722 2.919-0.859 1.695-14.618-0.249 0.022-1.27 4.499-3.433 14.573-31.716 4.432-2.415 13.74 34.689zM246.837-15.142l-6.96-17.661-7.998 17.406zM303.241-34.148l-4.756 3.376-1.312 33.455-2.339-0.092-22.059-30.808-1.005 25.61 4.676 2.765-0.947 1.675-10.811-0.424 0.049-1.269 4.716-3.368 1.14-29.078-4.911-2.875 0.896-1.666 7.115 0.279 21.498 30.056 0.977-24.891-4.626-2.763 0.946-1.665 10.802 0.424zM337.98 5.975l-2.372-1.027-28.895-1.77 0.077-1.268 4.792-3.313 1.833-29.914-4.903-2.064 0.932-1.646 28.018 1.717 2.489-0.729-0.67 10.94-1.239 0.264-5.218-8.855-13.814-0.847-0.971 15.85 8.025 0.492 3.943-6.15 1.258 0.077-0.912 14.882-1.751 0.774-2.555-7.68-8.124-0.498-1.023 16.688 13.614 0.835 7.012-9.139 1.184 0.464zM377.07 9.213l-2.358-1.08-28.75-2.399 0.106-1.266 4.863-3.206 2.489-29.827-4.852-2.211 0.968-1.625 14.28 1.192-0.104 1.255-4.915 3.213-2.622 31.421 12.865 1.073 7.922-9.905 1.183 0.49zM406.238 2.525c0.104-1.001-0.2-1.988-0.91-2.959-0.717-0.972-1.64-1.869-2.768-2.69-1.122-0.82-2.693-1.89-4.715-3.212v0c-2.356-1.517-4.237-2.804-5.642-3.861-1.411-1.064-2.577-2.27-3.497-3.619-0.925-1.356-1.31-2.793-1.152-4.311v0c0.167-1.611 1.01-3.28 2.528-5.006 1.518-1.72 3.305-3.117 5.36-4.191 2.055-1.081 3.889-1.538 5.5-1.372v0c1.976 0.204 4.239 0.683 6.789 1.436 2.549 0.753 4.396 1.467 5.539 2.142v0l-0.948 9.161-1.313-0.136c-1.344-2.813-2.91-5.04-4.698-6.679-1.787-1.639-3.749-2.569-5.884-2.79v0c-1.969-0.204-3.584 0.243-4.843 1.339-1.252 1.09-1.979 2.607-2.18 4.55v0c-0.11 1.068 0.205 2.102 0.946 3.103 0.747 1.009 1.705 1.949 2.875 2.821 1.163 0.878 2.757 1.957 4.782 3.239v0c2.293 1.484 4.129 2.746 5.509 3.787 1.38 1.041 2.515 2.217 3.405 3.529 0.896 1.319 1.267 2.721 1.113 4.207v0c-0.167 1.618-1.06 3.282-2.677 4.991-1.611 1.71-3.507 3.099-5.689 4.167-2.187 1.061-4.12 1.504-5.798 1.331v0c-2.069-0.214-4.501-0.71-7.295-1.489-2.795-0.778-4.777-1.506-5.947-2.183v0l0.947-9.161 1.303 0.134c1.443 2.83 3.165 5.076 5.165 6.737 2 1.661 4.13 2.609 6.391 2.843v0c1.419 0.147 2.704-0.032 3.856-0.536 1.145-0.505 2.061-1.234 2.749-2.189 0.683-0.962 1.082-2.006 1.199-3.133z" opacity="1" transform="matrix(1,0,0,1,0,0)" fill="#001f3f" class="undefined-text-0" data-fill-palette-color="primary" id="text-0"></path></svg></g></svg></g></svg></g></svg></g><g transform="matrix(1,0,0,1,153.50579592995703,0)"><svg viewBox="0 0 88.50840814008592 78.88792899442441" height="78.88792899442441" width="88.50840814008592"><g><svg xmlns="http://www.w3.org/2000/svg" xmlns:xlink="http://www.w3.org/1999/xlink" version="1.1" viewBox="2 7 92 82" x="0" y="0" height="78.88792899442441" width="88.50840814008592" class="icon-icon-0" data-fill-palette-color="accent" id="icon-0"><path d="M26 37c-5.512 0-10-4.488-10-10s4.488-10 10-10 10 4.488 10 10-4.488 10-10 10zM26 21c-3.308 0-6 2.692-6 6s2.692 6 6 6 6-2.692 6-6-2.692-6-6-6z" fill="#001f3f" data-fill-palette-color="accent"></path><path d="M26 47c-1.104 0-2-0.896-2-2v-4c0-1.104 0.896-2 2-2s2 0.896 2 2v4c0 1.104-0.896 2-2 2z" fill="#001f3f" data-fill-palette-color="accent"></path><path d="M26 15c-1.104 0-2-0.896-2-2v-4c0-1.104 0.896-2 2-2s2 0.896 2 2v4c0 1.104-0.896 2-2 2z" fill="#001f3f" data-fill-palette-color="accent"></path><path d="M44 29h-4c-1.104 0-2-0.896-2-2s0.896-2 2-2h4c1.104 0 2 0.896 2 2s-0.896 2-2 2z" fill="#001f3f" data-fill-palette-color="accent"></path><path d="M12 29h-4c-1.104 0-2-0.896-2-2s0.896-2 2-2h4c1.104 0 2 0.896 2 2s-0.896 2-2 2z" fill="#001f3f" data-fill-palette-color="accent"></path><path d="M38.728 41.728c-0.512 0-1.024-0.196-1.416-0.584l-2.828-2.828c-0.78-0.78-0.78-2.048 0-2.828s2.048-0.78 2.828 0l2.828 2.828c0.78 0.78 0.78 2.048 0 2.828-0.392 0.388-0.9 0.584-1.412 0.584z" fill="#001f3f" data-fill-palette-color="accent"></path><path d="M16.1 19.1c-0.512 0-1.024-0.196-1.416-0.584l-2.828-2.832c-0.78-0.78-0.78-2.048 0-2.828s2.048-0.78 2.828 0l2.828 2.832c0.78 0.78 0.78 2.048 0 2.828-0.388 0.392-0.9 0.584-1.412 0.584z" fill="#001f3f" data-fill-palette-color="accent"></path><path d="M35.9 19.1c-0.512 0-1.024-0.196-1.416-0.584-0.78-0.78-0.78-2.048 0-2.828l2.828-2.832c0.78-0.78 2.048-0.78 2.828 0s0.78 2.048 0 2.828l-2.828 2.832c-0.392 0.392-0.9 0.584-1.412 0.584z" fill="#001f3f" data-fill-palette-color="accent"></path><path d="M13.272 41.728c-0.512 0-1.024-0.196-1.416-0.584-0.78-0.78-0.78-2.048 0-2.828l2.828-2.828c0.78-0.78 2.048-0.78 2.828 0s0.78 2.048 0 2.828l-2.828 2.828c-0.388 0.388-0.9 0.584-1.412 0.584z" fill="#001f3f" data-fill-palette-color="accent"></path><path d="M92 89h-88c-1.104 0-2-0.9-2-2s0.896-2 2-2h88c1.1 0 2 0.9 2 2s-0.9 2-2 2z" fill="#001f3f" data-fill-palette-color="accent"></path><path d="M30 87c-1.104 0-2-0.9-2-2v-20c0-1.1 0.896-2 2-2s2 0.9 2 2v20c0 1.1-0.896 2-2 2z" fill="#001f3f" data-fill-palette-color="accent"></path><path d="M16.684 80.316c-0.512 0-1.024-0.196-1.416-0.584-0.78-0.78-0.78-2.052 0-2.828l22.628-22.628c0.78-0.78 2.048-0.78 2.828 0 0.78 0.776 0.78 2.048 0 2.824l-22.628 22.632c-0.388 0.388-0.9 0.584-1.412 0.584z" fill="#001f3f" data-fill-palette-color="accent"></path><path d="M54 87c-1.1 0-2-0.9-2-2v-20c0-1.1 0.9-2 2-2s2 0.9 2 2v20c0 1.1-0.9 2-2 2z" fill="#001f3f" data-fill-palette-color="accent"></path><path d="M40.684 80.316c-0.512 0-1.024-0.196-1.416-0.584-0.78-0.78-0.78-2.052 0-2.828l22.632-22.628c0.776-0.78 2.048-0.78 2.828 0 0.776 0.776 0.776 2.048 0 2.824l-22.632 22.632c-0.388 0.388-0.9 0.584-1.412 0.584z" fill="#001f3f" data-fill-palette-color="accent"></path><path d="M78 87c-1.1 0-2-0.9-2-2v-20c0-1.1 0.9-2 2-2s2 0.9 2 2v20c0 1.1-0.9 2-2 2z" fill="#001f3f" data-fill-palette-color="accent"></path><path d="M64.684 80.316c-0.512 0-1.024-0.196-1.416-0.584-0.776-0.78-0.776-2.052 0-2.828l22.632-22.628c0.776-0.78 2.048-0.78 2.828 0 0.776 0.776 0.776 2.048 0 2.824l-22.632 22.632c-0.388 0.388-0.9 0.584-1.412 0.584z" fill="#001f3f" data-fill-palette-color="accent"></path></svg></g></svg></g><g></g></svg></g><defs></defs></svg><rect width="395.52" height="141.96749606421844" fill="none" stroke="none" visibility="hidden"></rect></g></svg></g></svg>